<svg width="48" height="48" viewBox="0 0 48 48" fill="none" xmlns="http://www.w3.org/2000/svg">
<path d="M42.2813 35.0625C40.7925 33.5625 37.1869 31.3734 35.4375 30.4913C33.1594 29.3438 32.9719 29.25 31.1813 30.5803C29.9869 31.4681 29.1929 32.2613 27.795 31.9631C26.3972 31.665 23.3597 29.9841 20.7 27.3328C18.0404 24.6816 16.2619 21.5559 15.9629 20.1628C15.6638 18.7697 16.47 17.985 17.3494 16.7878C18.5888 15.1003 18.495 14.8191 17.4357 12.5409C16.6097 10.7691 14.3569 7.19719 12.8513 5.71594C11.2407 4.125 11.2407 4.40625 10.2029 4.8375C9.35796 5.19299 8.54739 5.62511 7.7813 6.12844C6.2813 7.125 5.4488 7.95281 4.86661 9.19688C4.28442 10.4409 4.02286 13.3575 7.02942 18.8194C10.036 24.2813 12.1454 27.0741 16.5113 31.4278C20.8772 35.7816 24.2344 38.1225 29.1422 40.875C35.2135 44.2753 37.5422 43.6125 38.7901 43.0313C40.0379 42.45 40.8694 41.625 41.8679 40.125C42.3725 39.3602 42.8056 38.5505 43.1616 37.7063C43.5938 36.6722 43.875 36.6722 42.2813 35.0625Z" stroke="#193A6A" stroke-miterlimit="10"/>
</svg>
