<svg width="16" height="16" viewBox="0 0 16 16" fill="none" xmlns="http://www.w3.org/2000/svg">
<path d="M10.25 4.00001V14.5M5.75 1.50001V12M9.78969 3.89501L6.21031 1.60501C6.06793 1.53388 5.91063 1.49777 5.75149 1.49967C5.59234 1.50158 5.43595 1.54144 5.29531 1.61594L1.76594 3.98407C1.68564 4.0266 1.61846 4.09022 1.5716 4.16807C1.52475 4.24593 1.49999 4.33508 1.5 4.42594V13.6697C1.49999 13.7559 1.52228 13.8407 1.56471 13.9158C1.60714 13.9908 1.66826 14.0536 1.74214 14.0981C1.81601 14.1426 1.90013 14.1672 1.98633 14.1695C2.07253 14.1719 2.15787 14.1519 2.23406 14.1116L5.29094 12.1181C5.43272 12.043 5.59051 12.0031 5.75096 12.0018C5.91141 12.0005 6.06982 12.0378 6.21281 12.1106L9.70844 14.3919C9.85018 14.4641 10.0071 14.5015 10.1662 14.5009C10.3253 14.5003 10.4819 14.4617 10.6231 14.3884L14.2303 12.0153C14.3116 11.9731 14.3797 11.9095 14.4273 11.8312C14.4748 11.7529 14.5 11.6631 14.5 11.5716V2.33032C14.5 2.24409 14.4777 2.15932 14.4353 2.08426C14.3929 2.00919 14.3317 1.94637 14.2579 1.9019C14.184 1.85743 14.0999 1.83282 14.0137 1.83046C13.9275 1.8281 13.8421 1.84808 13.7659 1.88844L10.7034 3.88407C10.563 3.95837 10.4068 3.99811 10.2479 4.00001C10.089 4.00192 9.93191 3.96592 9.78969 3.89501V3.89501Z" stroke="black" stroke-linecap="round" stroke-linejoin="round"/>
</svg>
