<svg width="40" height="37" viewBox="0 0 40 37" fill="none" xmlns="http://www.w3.org/2000/svg">
<g filter="url(#filter0_d_228_553)">
<path d="M16 13C11.5 14 5.61229 20.069 6.00002 24.7059C6.17465 26.7942 7.69506 28.0419 10.393 28.0419C13.3257 28.0419 15.148 27.5 17.5 27.5C19.8725 27.5 21.9287 28.0419 24.8356 28.0419C27.5336 28.0419 27.7002 24.0884 27.5255 22C27.1378 17.3631 21 14 16 13ZM7.42649 11.9686C6.62862 9.89519 4.71376 7.58352 3 8C1.28624 8.41648 0.422744 11.4037 1.22061 13.4771C2.01848 15.5505 4.05469 16.8933 5.76845 16.4769C7.48221 16.0604 8.22436 14.042 7.42649 11.9686ZM12.4098 10.7251C14.2269 10.2381 14.9473 7.7368 14.0191 5.1386C13.0908 2.5404 10.8172 0.0129274 9.00005 0.500015C7.18291 0.987103 6.51066 4.30505 7.43888 6.90325C8.3671 9.50145 10.5933 11.2128 12.4098 10.7251ZM29.1597 8.5C27.3763 8.08352 25.5653 9.89578 25.1136 11.9692C24.6624 14.0426 25.7421 16.061 27.5255 16.4774C29.309 16.8939 30.5483 15.5734 31 13.5C31.4511 11.4266 30.9431 8.91648 29.1597 8.5ZM19.9229 10.7251C21.8215 11.2122 23.7609 9.50145 24.2546 6.90325C24.7483 4.30505 23.8987 0.987701 22.0001 0.500015C20.1014 0.0123291 17.873 2.5404 17.3793 5.1386C16.8856 7.7368 18.0243 10.2381 19.9229 10.7251Z" fill="#FFDA47"/>
</g>
<defs>
<filter id="filter0_d_228_553" x="0" y="0.439209" width="40.9863" height="35.6027" filterUnits="userSpaceOnUse" color-interpolation-filters="sRGB">
<feFlood flood-opacity="0" result="BackgroundImageFix"/>
<feColorMatrix in="SourceAlpha" type="matrix" values="0 0 0 0 0 0 0 0 0 0 0 0 0 0 0 0 0 0 127 0" result="hardAlpha"/>
<feOffset dx="4" dy="4"/>
<feGaussianBlur stdDeviation="2"/>
<feComposite in2="hardAlpha" operator="out"/>
<feColorMatrix type="matrix" values="0 0 0 0 0 0 0 0 0 0 0 0 0 0 0 0 0 0 0.25 0"/>
<feBlend mode="normal" in2="BackgroundImageFix" result="effect1_dropShadow_228_553"/>
<feBlend mode="normal" in="SourceGraphic" in2="effect1_dropShadow_228_553" result="shape"/>
</filter>
</defs>
</svg>
