<svg width="32" height="28" viewBox="0 0 32 28" fill="none" xmlns="http://www.w3.org/2000/svg">
<path d="M16.3334 12.2987C11.565 12.2987 5.41848 19.6445 5.80621 24.2814C5.98084 26.3698 7.69504 27.6174 10.393 27.6174C13.3257 27.6174 15.1367 26.1166 17.4888 26.1166C19.8613 26.1166 21.9287 27.6174 24.8356 27.6174C27.5336 27.6174 29.0391 26.3698 28.8645 24.2814C28.4768 19.6445 21.1018 12.2987 16.3334 12.2987ZM7.42647 11.5441C6.6286 9.47069 4.59239 8.12791 2.87863 8.54438C1.16487 8.96086 0.422721 10.9792 1.22059 13.0526C2.01846 15.1261 4.05467 16.4688 5.76843 16.0524C7.48219 15.6359 8.22434 13.6175 7.42647 11.5441V11.5441ZM12.4097 10.3007C14.2269 9.81356 14.9473 7.3123 14.019 4.71411C13.0908 2.11591 10.8653 0.405116 9.04817 0.892203C7.23102 1.37929 6.51064 3.88055 7.43886 6.47875C8.36708 9.07695 10.5932 10.7883 12.4097 10.3007ZM29.1597 8.54498C27.3763 8.12851 25.5653 9.47129 25.1135 11.5447C24.6624 13.6181 25.7421 15.6365 27.5255 16.053C29.3089 16.4694 31.12 15.1266 31.5717 13.0532C32.0228 10.9798 30.9431 8.96146 29.1597 8.54498V8.54498ZM19.9229 10.3007C21.8215 10.7877 23.7609 9.07695 24.2546 6.47875C24.7483 3.88055 23.6097 1.37989 21.711 0.892203C19.8124 0.404518 17.873 2.11591 17.3793 4.71411C16.8856 7.3123 18.0243 9.81356 19.9229 10.3007V10.3007Z" fill="#333333"/>
</svg>
