<svg width="16" height="16" viewBox="0 0 16 16" fill="none" xmlns="http://www.w3.org/2000/svg">
<path d="M16 9.25C16 11.3219 14.0821 13 11.7143 13H11.4286C10.7964 13 10.2857 12.5531 10.2857 12C10.2857 11.4469 10.7964 11 11.4286 11H11.7143C12.8179 11 13.7143 10.2156 13.7143 9.25V9H11.4286C10.1679 9 9.14286 8.10313 9.14286 7V5C9.14286 3.89688 10.1679 3 11.4286 3H13.7143C14.975 3 16 3.89688 16 5V6V7V9.25ZM6.85714 9.25C6.85714 11.3219 4.93929 13 2.57143 13H2.28571C1.65357 13 1.14286 12.5531 1.14286 12C1.14286 11.4469 1.65357 11 2.28571 11H2.57143C3.675 11 4.57143 10.2156 4.57143 9.25V9H2.28571C1.025 9 0 8.10313 0 7V5C0 3.89688 1.025 3 2.28571 3H4.57143C5.83214 3 6.85714 3.89688 6.85714 5V6V7V9.25Z" fill="black"/>
</svg>
