<svg width="16" height="16" viewBox="0 0 16 16" fill="none" xmlns="http://www.w3.org/2000/svg">
<path d="M0 6.75C0 4.67812 1.91786 3 4.28571 3H4.57143C5.20357 3 5.71429 3.44687 5.71429 4C5.71429 4.55313 5.20357 5 4.57143 5H4.28571C3.18214 5 2.28571 5.78437 2.28571 6.75V7H4.57143C5.83214 7 6.85714 7.89687 6.85714 9V11C6.85714 12.1031 5.83214 13 4.57143 13H2.28571C1.025 13 0 12.1031 0 11V10V9V6.75ZM9.14286 6.75C9.14286 4.67812 11.0607 3 13.4286 3H13.7143C14.3464 3 14.8571 3.44687 14.8571 4C14.8571 4.55313 14.3464 5 13.7143 5H13.4286C12.325 5 11.4286 5.78437 11.4286 6.75V7H13.7143C14.975 7 16 7.89687 16 9V11C16 12.1031 14.975 13 13.7143 13H11.4286C10.1679 13 9.14286 12.1031 9.14286 11V10V9V6.75Z" fill="black"/>
</svg>
