<svg width="39" height="48" viewBox="0 0 39 48" fill="none" xmlns="http://www.w3.org/2000/svg">
<g clip-path="url(#clip0_66_260)">
<path d="M38.4797 27.75C38.4797 33.9656 33.9248 39 28.3012 39H27.6226C26.1213 39 24.9083 37.6594 24.9083 36C24.9083 34.3406 26.1213 33 27.6226 33H28.3012C30.9221 33 33.0512 30.6469 33.0512 27.75V27H27.6226C24.6284 27 22.194 24.3094 22.194 21V15C22.194 11.6906 24.6284 9 27.6226 9H33.0512C36.0454 9 38.4797 11.6906 38.4797 15V18V21V27.75ZM16.7655 27.75C16.7655 33.9656 12.2105 39 6.58688 39H5.90831C4.40697 39 3.19402 37.6594 3.19402 36C3.19402 34.3406 4.40697 33 5.90831 33H6.58688C9.20786 33 11.3369 30.6469 11.3369 27.75V27H5.90831C2.91411 27 0.479736 24.3094 0.479736 21V15C0.479736 11.6906 2.91411 9 5.90831 9H11.3369C14.3311 9 16.7655 11.6906 16.7655 15V18V21V27.75Z" fill="#C6E9FF"/>
<path d="M33.5512 27V26.5H33.0512H27.6226C24.9504 26.5 22.694 24.0815 22.694 21V15C22.694 11.9185 24.9504 9.5 27.6226 9.5H33.0512C35.7233 9.5 37.9797 11.9185 37.9797 15V18V21V27.75C37.9797 33.7377 33.6028 38.5 28.3012 38.5H27.6226C26.4433 38.5 25.4083 37.4315 25.4083 36C25.4083 34.5685 26.4433 33.5 27.6226 33.5H28.3012C31.2442 33.5 33.5512 30.8748 33.5512 27.75V27ZM11.8369 27V26.5H11.3369H5.90831C3.23616 26.5 0.979736 24.0815 0.979736 21V15C0.979736 11.9185 3.23616 9.5 5.90831 9.5H11.3369C14.009 9.5 16.2654 11.9185 16.2654 15V18V21V27.75C16.2654 33.7377 11.8885 38.5 6.58688 38.5H5.90831C4.72902 38.5 3.69402 37.4315 3.69402 36C3.69402 34.5685 4.72902 33.5 5.90831 33.5H6.58688C9.52991 33.5 11.8369 30.8748 11.8369 27.75V27Z" stroke="#6B8391" stroke-opacity="0.5"/>
</g>
<defs>
<clipPath id="clip0_66_260">
<rect width="38" height="48" fill="white" transform="translate(0.479736)"/>
</clipPath>
</defs>
</svg>
